<svg width="850" height="850" viewBox="0 0 850 850" fill="none" xmlns="http://www.w3.org/2000/svg">
<path fill-rule="evenodd" clip-rule="evenodd" d="M142.416 455.889L117.547 458.515L117.443 457.521L142.313 454.894C142.347 455.226 142.381 455.557 142.416 455.889ZM706.97 396.262C706.937 395.93 706.902 395.599 706.867 395.267L733.272 392.478L733.376 393.473L706.97 396.262Z" fill="white"/>
<path fill-rule="evenodd" clip-rule="evenodd" d="M708.399 455.889L733.268 458.515L733.372 457.521L708.502 454.894C708.468 455.226 708.434 455.557 708.399 455.889ZM143.845 396.262C143.878 395.93 143.913 395.599 143.948 395.267L117.543 392.478L117.439 393.473L143.845 396.262Z" fill="white"/>
<path fill-rule="evenodd" clip-rule="evenodd" d="M703.686 485.447L728.145 490.671L728.352 489.693L703.891 484.468C703.823 484.795 703.755 485.121 703.686 485.447ZM148.426 366.847C148.494 366.521 148.563 366.194 148.632 365.869L122.662 360.322L122.455 361.3L148.426 366.847Z" fill="white"/>
<path fill-rule="evenodd" clip-rule="evenodd" d="M695.923 514.349L719.705 522.114L720.013 521.162L696.23 513.397C696.128 513.714 696.026 514.032 695.923 514.349ZM156.042 338.075C156.144 337.757 156.247 337.44 156.349 337.123L131.098 328.878L130.791 329.83L156.042 338.075Z" fill="white"/>
<path fill-rule="evenodd" clip-rule="evenodd" d="M154.892 514.349L131.11 522.114L130.802 521.162L154.586 513.397C154.687 513.714 154.789 514.032 154.892 514.349ZM694.773 338.075C694.671 337.757 694.569 337.44 694.466 337.123L719.717 328.878L720.024 329.83L694.773 338.075Z" fill="white"/>
<path fill-rule="evenodd" clip-rule="evenodd" d="M685.197 542.276L708.041 552.497L708.446 551.583L685.6 541.362C685.466 541.667 685.332 541.972 685.197 542.276ZM166.61 310.26C166.744 309.954 166.879 309.65 167.014 309.345L142.759 298.494L142.354 299.408L166.61 310.26Z" fill="white"/>
<path fill-rule="evenodd" clip-rule="evenodd" d="M165.618 542.276L142.774 552.497L142.369 551.583L165.214 541.362C165.348 541.667 165.483 541.972 165.618 542.276ZM684.205 310.26C684.071 309.955 683.936 309.65 683.801 309.345L708.056 298.494L708.461 299.408L684.205 310.26Z" fill="white"/>
<path fill-rule="evenodd" clip-rule="evenodd" d="M147.129 485.447L122.67 490.671L122.463 489.693L146.924 484.468C146.992 484.795 147.06 485.121 147.129 485.447ZM702.389 366.847C702.321 366.521 702.252 366.194 702.183 365.869L728.153 360.322L728.36 361.3L702.389 366.847Z" fill="white"/>
<path fill-rule="evenodd" clip-rule="evenodd" d="M310.12 686.958L299.949 709.913L299.036 709.505L309.208 686.548C309.512 686.685 309.815 686.822 310.12 686.958ZM541.009 165.84C540.706 165.703 540.402 165.566 540.097 165.431L550.896 141.057L551.809 141.466L541.009 165.84Z" fill="white"/>
<path fill-rule="evenodd" clip-rule="evenodd" d="M593.111 194.409L607.809 174.081L607.001 173.491L592.302 193.821C592.573 194.016 592.842 194.213 593.111 194.409ZM259.447 655.901C259.177 655.705 258.907 655.508 258.638 655.311L243.032 676.896L243.84 677.486L259.447 655.901Z" fill="white"/>
<path fill-rule="evenodd" clip-rule="evenodd" d="M616.229 213.291L632.961 194.617L632.219 193.945L615.485 212.62C615.734 212.843 615.981 213.067 616.229 213.291ZM236.387 637.206C236.139 636.983 235.891 636.759 235.644 636.535L217.879 656.362L218.621 657.034L236.387 637.206Z" fill="white"/>
<path fill-rule="evenodd" clip-rule="evenodd" d="M637.255 234.497L655.838 217.683L655.17 216.937L636.586 233.752C636.809 234 637.033 234.248 637.255 234.497ZM215.398 616.192C215.175 615.944 214.952 615.695 214.73 615.447L194.999 633.299L195.667 634.045L215.398 616.192Z" fill="white"/>
<path fill-rule="evenodd" clip-rule="evenodd" d="M366.739 705.33L361.54 729.909L360.564 729.7L365.763 705.12C366.088 705.191 366.414 705.261 366.739 705.33ZM484.764 147.361C484.438 147.29 484.112 147.221 483.787 147.151L489.307 121.055L490.284 121.263L484.764 147.361Z" fill="white"/>
<path fill-rule="evenodd" clip-rule="evenodd" d="M655.961 257.795L676.191 243.025L675.604 242.213L655.373 256.984C655.569 257.254 655.765 257.524 655.961 257.795ZM196.711 593.088C196.514 592.818 196.318 592.548 196.123 592.277L174.643 607.959L175.23 608.771L196.711 593.088Z" fill="white"/>
<path fill-rule="evenodd" clip-rule="evenodd" d="M396.171 709.96L393.557 734.95L392.564 734.845L395.178 709.853C395.509 709.889 395.84 709.925 396.171 709.96ZM455.508 142.65C455.177 142.614 454.846 142.579 454.515 142.544L457.291 116.011L458.284 116.115L455.508 142.65Z" fill="white"/>
<path fill-rule="evenodd" clip-rule="evenodd" d="M337.95 697.635L330.223 721.533L329.273 721.223L337.001 697.323C337.317 697.428 337.634 697.532 337.95 697.635ZM513.368 155.119C513.052 155.015 512.735 154.911 512.419 154.808L520.623 129.434L521.573 129.744L513.368 155.119Z" fill="white"/>
<path fill-rule="evenodd" clip-rule="evenodd" d="M593.112 656.547L607.81 676.876L607.001 677.466L592.303 657.136C592.573 656.94 592.842 656.744 593.112 656.547ZM259.447 195.056C259.177 195.252 258.907 195.448 258.638 195.645L243.032 174.061L243.84 173.471L259.447 195.056Z" fill="white"/>
<path fill-rule="evenodd" clip-rule="evenodd" d="M310.12 163.999L299.949 141.044L299.036 141.452L309.208 164.409C309.512 164.272 309.816 164.135 310.12 163.999ZM541.01 685.117C540.706 685.254 540.402 685.391 540.097 685.526L550.896 709.9L551.809 709.491L541.01 685.117Z" fill="white"/>
<path fill-rule="evenodd" clip-rule="evenodd" d="M337.95 153.322L330.223 129.424L329.273 129.734L337.001 153.634C337.317 153.529 337.634 153.425 337.95 153.322ZM513.368 695.838C513.052 695.942 512.735 696.045 512.419 696.149L520.623 721.523L521.573 721.212L513.368 695.838Z" fill="white"/>
<path fill-rule="evenodd" clip-rule="evenodd" d="M366.74 145.627L361.541 121.048L360.564 121.256L365.763 145.837C366.088 145.766 366.414 145.696 366.74 145.627ZM484.764 703.596C484.438 703.666 484.112 703.736 483.787 703.805L489.307 729.902L490.284 729.693L484.764 703.596Z" fill="white"/>
<path fill-rule="evenodd" clip-rule="evenodd" d="M637.255 616.46L655.838 633.274L655.17 634.02L636.586 617.205C636.81 616.957 637.033 616.709 637.255 616.46ZM215.398 234.765C215.175 235.013 214.952 235.261 214.73 235.51L194.999 217.658L195.667 216.912L215.398 234.765Z" fill="white"/>
<path fill-rule="evenodd" clip-rule="evenodd" d="M396.171 140.997L393.558 116.007L392.564 116.112L395.178 141.104C395.509 141.067 395.84 141.032 396.171 140.997ZM455.508 708.307C455.177 708.343 454.846 708.378 454.515 708.413L457.291 734.946L458.284 734.841L455.508 708.307Z" fill="white"/>
<path fill-rule="evenodd" clip-rule="evenodd" d="M655.961 593.162L676.191 607.932L675.604 608.743L655.373 593.973C655.569 593.703 655.765 593.433 655.961 593.162ZM196.711 257.869C196.514 258.139 196.319 258.409 196.123 258.68L174.644 242.998L175.231 242.186L196.711 257.869Z" fill="white"/>
<path fill-rule="evenodd" clip-rule="evenodd" d="M616.229 637.666L632.961 656.34L632.219 657.011L615.485 638.336C615.734 638.113 615.981 637.89 616.229 637.666ZM236.387 213.75C236.139 213.974 235.892 214.197 235.644 214.421L217.879 194.594L218.621 193.923L236.387 213.75Z" fill="white"/>
<path fill-rule="evenodd" clip-rule="evenodd" d="M546.96 200.332C548.126 200.981 549.286 201.638 550.44 202.305L575.876 158.034L572.416 156.027L546.96 200.332ZM288.953 649.395L262.805 694.905L266.265 696.912L292.389 651.443C291.238 650.769 290.093 650.086 288.953 649.395Z" fill="white"/>
<path fill-rule="evenodd" clip-rule="evenodd" d="M649.612 295.885L695.195 269.439L693.202 265.971L647.594 292.431C648.274 293.575 648.947 294.726 649.612 295.885ZM202.728 555.153C202.063 553.994 201.407 552.833 200.762 551.669L156.941 577.092L158.933 580.561L202.728 555.153Z" fill="white"/>
<path fill-rule="evenodd" clip-rule="evenodd" d="M585.329 692.432L581.869 694.439L555.552 648.635C556.708 647.964 557.856 647.286 558.997 646.601L585.329 692.432ZM301.019 197.588L275.719 153.553L272.259 155.561L297.544 199.569C298.699 198.899 299.857 198.239 301.019 197.588Z" fill="white"/>
<path fill-rule="evenodd" clip-rule="evenodd" d="M551.424 201.365L577.741 155.561L574.281 153.553L547.949 199.385C549.111 200.035 550.269 200.695 551.424 201.365ZM293.415 650.431C292.26 649.76 291.112 649.083 289.971 648.397L264.671 692.432L268.131 694.439L293.415 650.431Z" fill="white"/>
<path fill-rule="evenodd" clip-rule="evenodd" d="M693.059 577.093L691.067 580.561L645.484 554.115C646.15 552.957 646.805 551.796 647.451 550.632L693.059 577.093ZM200.619 291.394L156.798 265.971L154.805 269.439L198.6 294.847C199.265 293.689 199.938 292.538 200.619 291.394Z" fill="white"/>
<path d="M716.108 442.547C713.457 442.547 711.095 442.092 709.024 441.18C706.964 440.257 705.337 438.99 704.141 437.381C702.957 435.759 702.348 433.889 702.312 431.77H710.054C710.101 432.658 710.391 433.439 710.924 434.114C711.468 434.776 712.19 435.291 713.09 435.658C713.99 436.025 715.002 436.209 716.126 436.209C717.298 436.209 718.334 436.002 719.233 435.587C720.133 435.173 720.837 434.599 721.346 433.865C721.855 433.131 722.11 432.285 722.11 431.326C722.11 430.355 721.838 429.497 721.293 428.751C720.76 427.994 719.991 427.402 718.985 426.976C717.991 426.55 716.807 426.337 715.434 426.337H712.042V420.69H715.434C716.594 420.69 717.618 420.489 718.505 420.087C719.405 419.684 720.103 419.128 720.601 418.417C721.098 417.695 721.346 416.855 721.346 415.896C721.346 414.985 721.127 414.186 720.689 413.499C720.263 412.801 719.66 412.256 718.878 411.866C718.109 411.475 717.209 411.28 716.179 411.28C715.138 411.28 714.185 411.469 713.321 411.848C712.457 412.215 711.764 412.742 711.243 413.428C710.723 414.115 710.444 414.92 710.409 415.843H703.04C703.076 413.748 703.674 411.901 704.834 410.303C705.994 408.705 707.556 407.456 709.521 406.557C711.498 405.645 713.729 405.189 716.215 405.189C718.724 405.189 720.92 405.645 722.802 406.557C724.684 407.468 726.146 408.699 727.188 410.25C728.241 411.789 728.762 413.517 728.75 415.435C728.762 417.471 728.129 419.169 726.851 420.53C725.584 421.892 723.933 422.756 721.897 423.123V423.407C724.572 423.75 726.608 424.679 728.005 426.194C729.413 427.698 730.112 429.58 730.1 431.841C730.112 433.912 729.514 435.753 728.307 437.363C727.111 438.973 725.46 440.239 723.353 441.163C721.246 442.086 718.831 442.547 716.108 442.547Z" fill="white"/>
<path d="M134.788 406.189C136.659 406.189 138.458 406.503 140.186 407.131C141.926 407.758 143.477 408.758 144.838 410.131C146.211 411.504 147.294 413.327 148.087 415.6C148.892 417.861 149.301 420.637 149.313 423.927C149.313 427.017 148.963 429.775 148.265 432.202C147.578 434.616 146.59 436.67 145.3 438.363C144.01 440.056 142.453 441.346 140.63 442.234C138.807 443.109 136.771 443.547 134.522 443.547C132.096 443.547 129.953 443.08 128.095 442.145C126.236 441.198 124.739 439.913 123.602 438.292C122.478 436.658 121.797 434.823 121.561 432.788H129.142C129.438 434.113 130.06 435.143 131.007 435.877C131.953 436.599 133.125 436.96 134.522 436.96C136.89 436.96 138.689 435.93 139.92 433.871C141.151 431.799 141.772 428.964 141.784 425.366H141.536C140.991 426.431 140.257 427.348 139.334 428.118C138.411 428.875 137.351 429.461 136.156 429.876C134.972 430.29 133.711 430.497 132.374 430.497C130.231 430.497 128.319 429.994 126.639 428.988C124.958 427.982 123.632 426.597 122.661 424.833C121.691 423.069 121.205 421.057 121.205 418.796C121.194 416.358 121.756 414.185 122.892 412.28C124.029 410.374 125.615 408.882 127.651 407.805C129.699 406.716 132.078 406.178 134.788 406.189ZM134.842 412.226C133.646 412.226 132.581 412.511 131.646 413.079C130.722 413.647 129.989 414.41 129.444 415.369C128.911 416.328 128.651 417.399 128.663 418.583C128.663 419.779 128.923 420.856 129.444 421.814C129.977 422.761 130.699 423.519 131.61 424.087C132.534 424.644 133.587 424.922 134.771 424.922C135.659 424.922 136.481 424.756 137.239 424.425C137.996 424.093 138.653 423.637 139.21 423.057C139.778 422.466 140.222 421.785 140.541 421.015C140.861 420.246 141.021 419.429 141.021 418.565C141.009 417.417 140.737 416.364 140.204 415.405C139.671 414.446 138.937 413.676 138.002 413.096C137.067 412.516 136.014 412.226 134.842 412.226Z" fill="white"/>
<path d="M424.557 735.002C422.687 734.99 420.882 734.676 419.142 734.061C417.414 733.445 415.863 732.445 414.49 731.06C413.117 729.675 412.028 727.84 411.223 725.556C410.43 723.271 410.033 720.466 410.033 717.14C410.045 714.086 410.394 711.357 411.081 708.954C411.779 706.539 412.773 704.492 414.064 702.811C415.366 701.13 416.922 699.851 418.733 698.975C420.545 698.088 422.575 697.644 424.824 697.644C427.25 697.644 429.393 698.117 431.251 699.064C433.11 699.999 434.601 701.272 435.726 702.882C436.862 704.492 437.549 706.297 437.785 708.297H430.204C429.908 707.031 429.286 706.036 428.339 705.314C427.392 704.592 426.22 704.231 424.824 704.231C422.456 704.231 420.657 705.261 419.426 707.321C418.207 709.38 417.585 712.18 417.562 715.719H417.81C418.355 714.642 419.089 713.725 420.012 712.967C420.947 712.198 422.006 711.612 423.19 711.209C424.386 710.795 425.646 710.588 426.972 710.588C429.126 710.588 431.044 711.097 432.725 712.115C434.406 713.121 435.732 714.506 436.702 716.269C437.673 718.033 438.158 720.051 438.158 722.324C438.158 724.786 437.584 726.976 436.436 728.894C435.3 730.811 433.707 732.315 431.66 733.404C429.624 734.481 427.256 735.014 424.557 735.002ZM424.522 728.965C425.706 728.965 426.765 728.681 427.7 728.113C428.635 727.544 429.369 726.775 429.902 725.804C430.434 724.834 430.701 723.745 430.701 722.537C430.701 721.33 430.434 720.247 429.902 719.288C429.381 718.329 428.659 717.566 427.736 716.997C426.812 716.429 425.759 716.145 424.575 716.145C423.687 716.145 422.865 716.311 422.107 716.642C421.361 716.974 420.704 717.435 420.136 718.027C419.58 718.619 419.142 719.306 418.822 720.087C418.503 720.856 418.343 721.679 418.343 722.555C418.343 723.727 418.609 724.798 419.142 725.769C419.686 726.739 420.42 727.515 421.344 728.095C422.279 728.675 423.338 728.965 424.522 728.965Z" fill="white"/>
<path d="M414.319 116.872V151.781H406.938V123.878H406.733L398.739 128.889V122.344L407.381 116.872H414.319ZM422.615 151.781V146.463L435.042 134.958C436.098 133.935 436.985 133.014 437.701 132.196C438.428 131.378 438.979 130.577 439.354 129.793C439.729 128.997 439.917 128.139 439.917 127.219C439.917 126.196 439.684 125.315 439.218 124.577C438.752 123.827 438.115 123.253 437.309 122.855C436.502 122.446 435.587 122.242 434.564 122.242C433.496 122.242 432.564 122.458 431.769 122.889C430.973 123.321 430.36 123.94 429.928 124.747C429.496 125.554 429.28 126.514 429.28 127.628H422.275C422.275 125.344 422.792 123.361 423.826 121.679C424.86 119.997 426.309 118.696 428.172 117.776C430.036 116.855 432.184 116.395 434.615 116.395C437.115 116.395 439.292 116.838 441.144 117.725C443.007 118.6 444.456 119.815 445.49 121.372C446.525 122.929 447.042 124.713 447.042 126.725C447.042 128.043 446.78 129.344 446.257 130.628C445.746 131.912 444.831 133.338 443.513 134.906C442.195 136.463 440.337 138.333 437.939 140.514L432.843 145.509V145.747H447.502V151.781H422.615Z" fill="white"/>
</svg>
